<svg enable-background="new 0 0 604 135" viewBox="0 0 604 135" xmlns="http://www.w3.org/2000/svg" xmlns:xlink="http://www.w3.org/1999/xlink"><linearGradient id="a"><stop offset="0" stop-color="#25a390"/><stop offset="1" stop-color="#3e6fb4"/></linearGradient><linearGradient id="b" gradientUnits="userSpaceOnUse" x1="25.6452" x2="573.2425" xlink:href="#a" y1="47.7053" y2="128.3813"/><linearGradient id="c" gradientUnits="userSpaceOnUse" x1="27.757" x2="575.3543" y1="33.3712" y2="114.0472"><stop offset=".002238803" stop-color="#25a390"/><stop offset="1" stop-color="#3e6fb4"/></linearGradient><linearGradient id="d" gradientUnits="userSpaceOnUse" x1="30.0317" x2="577.0647" xlink:href="#a" y1="20.6623" y2="101.2551"/><linearGradient id="e" gradientUnits="userSpaceOnUse" x1="31.8637" x2="579.4611" xlink:href="#a" y1="5.4963" y2="86.1723"/><linearGradient id="f" gradientUnits="userSpaceOnUse" x1="23.3493" x2="571.0203" xlink:href="#a" y1="63.1954" y2="143.8823"/><linearGradient id="g" gradientUnits="userSpaceOnUse" x1="32.8149" x2="580.4122" xlink:href="#a" y1="-.9598" y2="79.7162"/><linearGradient id="h" gradientUnits="userSpaceOnUse" x1="-169.7409" x2="590.7562" xlink:href="#a" y1="-76.9914" y2="35.0506"/><linearGradient id="i" gradientUnits="userSpaceOnUse" x1="-169.7679" x2="590.7292" xlink:href="#a" y1="-76.8083" y2="35.2336"/><path d="m133.3 33.9c0-5.6 4.5-10.1 10.2-10.1h2.3c4.3 0 7.4 2.3 9.2 5.3l24.6 39.8 24.8-39.9c2.1-3.5 5-5.1 9.1-5.1h2.3c5.7 0 10.2 4.4 10.2 10.1v72.9c0 5.6-4.5 10.1-10.2 10.1-5.5 0-10-4.6-10-10.1v-45.9l-18 27.3c-2.1 3.1-4.8 5.1-8.5 5.1s-6.3-1.9-8.5-5.1l-17.6-26.8v45.6c0 5.5-4.5 9.8-10 9.8s-9.9-4.3-9.9-9.8z" fill="url(#b)"/><path d="m241.4 106.5v-72.6c0-5.7 4.5-10.3 10.4-10.3h52c5.1 0 9.3 4.2 9.3 9.2s-4.2 9.1-9.3 9.1h-41.9v18.8h35.8c5.1 0 9.3 4.2 9.3 9.2s-4.2 9.1-9.3 9.1h-35.8v19.6h42.5c5.1 0 9.3 4.2 9.3 9.2s-4.2 9.1-9.3 9.1h-52.7c-5.6-.1-10.3-4.7-10.3-10.4z" fill="url(#c)"/><path d="m335.5 23.8h2.1c4.9 0 7.8 2.4 10.5 5.9l39.2 51.1v-47.3c0-5.5 4.5-9.9 10-9.9s10 4.4 10 9.9v73c0 5.6-4.5 10.1-10.2 10.1h-.4c-4.9 0-7.8-2.4-10.5-5.9l-40.7-53v49.1c0 5.5-4.5 9.9-10 9.9s-10-4.4-10-9.9c0 0 0-63.3 0-72.9-.1-7.1 6.1-10.1 10-10.1z" fill="url(#d)"/><path d="m446 42.3h-19.7c-5.2 0-9.4-4.2-9.4-9.4s4.3-9.4 9.4-9.4h60c5.2 0 9.4 4.2 9.4 9.4s-4.3 9.4-9.4 9.4h-19.7v64.4c0 5.7-4.5 10.2-10.3 10.2-5.7 0-10.3-4.5-10.3-10.2z" fill="url(#e)"/><path d="m119.5 70c0-25.3-19.6-46.5-48.3-46.5s-48.6 21-48.6 46.7v.2c0 25.5 20.4 46.1 47.4 46.5h1.8c5.1 0 9.2-4 9.2-9.1s-4.1-9.2-9.2-9.2h-1.4c-15.3-.4-26.8-13.2-26.8-28.3v-.3c0-15.5 11.2-28.1 27.4-28.1s27.6 12.9 27.6 28.4v.2c0 4.6-1 8.8-2.5 12.4l-10.1-8.9c-2-1.8-4-2.8-6.6-2.8-5.2 0-9.4 4.2-9.4 9.4 0 3.2 1.6 5.7 3.6 7.5l9.5 8 14.9 13.2 4.9 4.4c1.6 1.6 4 2.8 6.6 2.8 5.2 0 9.4-4.2 9.4-9.4 0-3.2-1.6-5.7-3.6-7.5l-3.5-2.9c2.4-3.5 7.7-12.1 7.7-26.7z" fill="url(#f)"/><path d="m489.1 103.2 32-71.7c2.3-4.9 6.3-7.9 11.9-7.9h1.2c5.5 0 9.5 3 11.7 7.9l32 71.7c.6 1.4 1.1 2.8 1.1 4.1 0 5.4-4.2 9.6-9.6 9.6-4.7 0-7.9-2.8-9.7-6.9l-6.2-14.3h-40.5l-6.5 15c-1.7 3.9-5.1 6.2-9.3 6.2-5.3 0-9.3-4.2-9.3-9.4 0-1.4.6-2.9 1.2-4.3zm56.9-25.3-12.7-30.1-12.7 30.1z" fill="url(#g)"/><path d="m570.5 25c3.9 0 7.1 3.2 7.1 7.1s-3.2 7.1-7.1 7.1-7.1-3.2-7.1-7.1 3.2-7.1 7.1-7.1m0-1.5c-4.7 0-8.5 3.8-8.5 8.5s3.8 8.5 8.5 8.5 8.5-3.8 8.5-8.5-3.8-8.5-8.5-8.5z" fill="url(#h)"/><path d="m569.2 33v3.4h-1.6v-8.7h2.7c.6 0 1.1.1 1.5.2s.8.3 1 .5c.3.2.5.5.6.8s.2.6.2 1c0 .3 0 .6-.1.8-.1.3-.2.5-.4.7s-.4.4-.6.6-.5.3-.8.4c.2.1.4.3.5.5l2.2 3.2h-1.4c-.1 0-.3 0-.4-.1s-.2-.1-.2-.2l-1.8-2.8c-.1-.1-.1-.2-.2-.2s-.2-.1-.4-.1zm0-1.1h1c.3 0 .6 0 .8-.1s.4-.2.6-.3c.1-.1.3-.3.3-.5.1-.2.1-.4.1-.6 0-.4-.1-.8-.4-1s-.7-.4-1.3-.4h-1v2.9z" fill="url(#i)"/></svg>